<svg width="197" height="25" viewBox="0 0 197 25" fill="none" xmlns="http://www.w3.org/2000/svg">
<g clip-path="url(#clip0_1_257)">
<path fill-rule="evenodd" clip-rule="evenodd" d="M118.675 24.3879H116.55V0.0712952H118.675V24.3879ZM169.162 0.0712952V20.4542L150.185 0.0712952V0H147.99V24.3879H150.185V3.79014L169.162 24.3879V24.3156V24.3879H171.356V0.0712952H169.162ZM143.174 0.0712952V0.14259L120.657 24.3156H123.913L143.174 3.0751V17.1631H133.686V19.3805H143.174V24.3156H145.297V0.0712952H143.174Z" fill="black"/>
<path fill-rule="evenodd" clip-rule="evenodd" d="M107.488 13.3006H107.63C111.17 13.3006 114.071 10.0829 114.071 6.50771C114.071 3.0751 111.381 0.213884 108.052 0.0712952V0H107.699H90.2813V24.3879H92.4766V2.21747H107.911C108.953 2.35474 109.91 2.86632 110.601 3.65632C111.292 4.44631 111.67 5.46049 111.665 6.50876C111.665 8.79752 109.894 11.0139 107.558 11.1576H104.585V13.5889H104.654L110.956 24.3166H114.427L107.488 13.3006ZM76.2608 0L64.4366 0.0712952V24.3869H82.2086C85.6067 24.1719 88.2268 21.3107 88.2268 17.8771C88.2268 15.5181 87.023 13.5155 85.182 12.3706C87.0219 11.2278 88.2268 8.86776 88.2268 6.50771C88.2268 3.0751 85.6067 0.285178 82.279 0.0712952V0H76.2608ZM76.2608 22.1694H66.6309V2.21747H82.1371C83.1792 2.35476 84.1353 2.86638 84.8261 3.65641C85.5169 4.44643 85.895 5.46059 85.8896 6.50876C85.8896 8.86881 83.9781 11.0852 81.6408 11.1576V13.5868C83.977 13.5868 85.8896 15.5181 85.8896 17.8771C85.8896 20.0945 84.1905 21.8821 82.0666 22.1694H76.2608Z" fill="black"/>
<path fill-rule="evenodd" clip-rule="evenodd" d="M0 0V24.3155H2.19534L21.455 3.64754V17.163H12.108V19.3805H21.455V24.3155H23.5799V0H0ZM2.19534 21.0255V12.7302H9.98417L2.19534 21.0255ZM2.19534 10.5128V2.21642H19.8969L12.108 10.5128H2.19534Z" fill="#00ACEC"/>
<path fill-rule="evenodd" clip-rule="evenodd" d="M184.668 0C178.013 0 172.56 5.43515 172.56 12.1588C172.56 18.8794 178.013 24.3879 184.668 24.3879C191.324 24.3879 196.706 18.8794 196.706 12.1588C196.706 5.43515 191.324 0 184.668 0ZM184.668 21.8119C179.428 21.8119 175.251 17.5216 175.251 12.3014C175.251 7.00887 179.428 2.78992 184.668 2.78992C189.837 2.78992 194.086 7.00887 194.086 12.3014C194.086 17.5216 189.837 21.8119 184.668 21.8119Z" fill="black"/>
<path fill-rule="evenodd" clip-rule="evenodd" d="M55.3016 2.35999V0.142523H31.5808V24.3879H33.7057V13.2292H47.68L37.3867 24.3155H40.644L59.8332 3.07503V17.163H50.4157V19.3805H59.8332L59.9741 24.4592H62.1694L62.0286 0.071228H59.8332V0.142523L49.7386 11.0128H33.7057V2.35999H55.3016Z" fill="black"/>
</g>
<defs>
<clipPath id="clip0_1_257">
<rect width="196.706" height="24.4593" fill="white"/>
</clipPath>
</defs>
</svg>
