<svg width="212" height="20" viewBox="0 0 212 20" fill="none" xmlns="http://www.w3.org/2000/svg">
<g clip-path="url(#clip0_1_264)">
<path d="M12.7542 18.9502L10.3934 19.5722L5.24907 11.8163L2.35976 11.7431L2.50071 19.2429L0.175171 19.4258V0.475144L4.6853 0.328803C6.72896 0.255635 8.31455 0.731236 9.40684 1.68243C10.4991 2.67021 11.0629 3.98725 11.0629 5.56037C11.0629 6.62132 10.7106 7.64568 10.0411 8.67004C9.37161 9.73099 8.42025 10.5358 7.15178 11.048V11.1212L12.7542 18.9502ZM2.46547 1.82876L2.32453 10.4627L5.84807 10.3163C7.11654 9.9505 8.63167 8.41394 8.63167 6.14571C8.63167 3.62139 7.04607 1.97511 4.40342 1.90194L2.46547 1.82876ZM23.7124 19.5722C18.6385 19.5722 14.6569 15.6576 14.6569 9.80415C14.6569 4.42625 19.1671 0.0361328 24.2409 0.0361328C29.3501 0.0361328 33.3317 3.98724 33.3317 9.84074C33.2964 15.2552 28.5749 19.5722 23.7124 19.5722ZM24.0648 17.9991C28.0464 17.9991 30.83 14.926 30.83 10.0237C30.83 5.12135 27.5883 1.60926 23.8886 1.60926C19.9422 1.60926 17.1234 4.64576 17.1234 9.62123C17.1234 14.4138 20.4355 17.9991 24.0648 17.9991ZM43.3033 19.2429L40.9778 19.4258V10.4261L34.1069 0.658066L36.6086 0.328803L42.3872 9.07246L48.342 0.328803L50.3504 0.658066L43.2681 10.5358L43.3033 19.2429ZM66.1358 19.2063L63.7046 19.4624L61.9076 14.4504L53.134 14.6333L51.337 19.4258L49.3285 19.2063L57.186 0.328803L58.2431 0.0727138L66.1358 19.2063ZM57.4327 3.58481L53.8034 12.9504L61.3438 13.0967L57.4327 3.58481ZM74.2047 19.2429L69.3775 19.3893V0.511725L71.703 0.328803L71.5973 8.34078L71.6678 17.7795L79.4196 17.4869L79.2434 19.2795L74.2047 19.2429ZM127.798 19.2429L125.472 19.4258V1.90194L118.425 2.15802L118.601 0.328803H126.424L134.633 0.145881L134.457 2.08486L127.833 1.82876L127.692 8.77979L127.798 19.2429ZM150.243 19.2063L147.811 19.4624L146.014 14.4504L137.241 14.6333L135.444 19.4258L133.435 19.2063L141.293 0.328803L142.35 0.0727138L150.243 19.2063ZM141.54 3.58481L137.91 12.9504L145.451 13.0967L141.54 3.58481ZM158.312 19.2429L153.484 19.3893V0.511725L155.81 0.328803L155.704 8.3042L155.775 17.743L163.526 17.4503L163.35 19.2429H158.312ZM169.904 19.2429L166.839 19.3893V0.475144L171.208 0.328803H176.634L176.458 2.15802L169.164 1.86535L168.988 9.03589L175.33 8.85297L174.943 10.6456L168.953 10.4627L169.129 17.743L177.233 17.4869L177.057 19.2795H169.904V19.2429ZM182.976 19.2429L180.898 19.4258L181.074 0.511725L182.765 0.328803L194.005 14.9625L193.794 0.511725L195.873 0.328803L195.626 19.2429L194.851 19.3893L182.73 4.097L182.976 19.2429ZM205.034 19.4258C203.977 19.4258 202.92 19.2063 201.898 18.7673C200.876 18.3283 200.101 17.7795 199.537 17.2308L200.665 15.9503C202.074 17.0479 203.589 17.8893 205.633 17.8893C207.888 17.8893 209.438 16.8283 209.438 14.743C209.438 13.6455 209.051 12.8041 208.346 12.2919C207.641 11.7797 206.655 11.2675 205.457 10.7553C202.955 9.73098 200.277 8.67004 200.277 5.19453C200.277 2.41412 202.708 0.182468 206.02 0.182468C207.747 0.182468 209.544 0.694651 210.601 1.49951L210.178 3.1458C209.121 2.63362 207.077 1.86535 205.527 1.86535C203.801 1.86535 202.356 2.70679 202.356 4.536C202.356 5.7067 202.743 6.54814 203.448 7.06032C204.153 7.60909 205.139 8.12128 206.302 8.63346C208.769 9.73099 211.517 10.609 211.517 14.0114C211.552 17.5966 208.416 19.4258 205.034 19.4258Z" fill="#333333"/>
<path d="M89.6741 0.0716553V19.3516H108.243V0.0716553H89.6741ZM98.941 18.5468C94.2194 18.5468 90.414 14.5956 90.414 9.69334C90.414 4.79104 94.2194 0.839929 98.941 0.839929C103.663 0.839929 107.468 4.79104 107.468 9.69334C107.468 14.5956 103.663 18.5468 98.941 18.5468ZM91.4711 11.2665C91.6473 12.1445 92.4929 14.2664 93.9376 13.7542C94.9946 13.3518 95.0651 12.3274 95.2765 11.1567C95.4527 10.0592 95.7346 7.97388 96.0869 7.53487C96.1221 7.49828 96.0869 7.46169 96.0517 7.46169C95.206 7.49828 94.6423 9.47383 94.3251 10.3884C93.7261 12.1811 91.8939 12.3274 91.5768 11.2299C91.5768 11.2299 91.4711 11.2299 91.4711 11.2665ZM106.27 8.15679C106.059 7.6812 105.918 7.49828 105.706 7.05926C105.882 6.54708 106.094 5.85199 106.059 5.55931C105.918 4.31545 104.297 5.63247 104.649 7.24219C104.755 7.6812 104.861 8.01047 104.931 8.30314C104.438 9.3275 104.226 9.14458 104.262 8.77873C104.297 8.52264 104.332 8.01046 104.332 8.01046C104.473 7.02268 103.98 6.94952 103.663 7.16902C103.486 7.27878 103.24 7.64462 103.134 7.86412L103.24 7.38853L102.359 7.75438L102.077 9.25432C101.725 10.0958 101.337 10.2421 101.09 10.2055C101.02 10.1689 100.949 10.1324 100.879 10.0958C101.689 9.36409 101.971 8.74215 101.901 8.30314C101.83 7.82754 101.478 7.82754 101.231 7.90071C100.597 8.12022 100.069 8.77873 99.9276 9.69334C99.8923 9.98602 99.8923 10.2787 99.9628 10.4982C99.399 11.4128 99.3638 10.9006 99.4343 10.5348C99.6104 9.69334 100.174 6.21783 100.174 6.21783L99.2933 6.58367C99.2933 6.58367 98.7648 9.62017 98.5534 10.7909C98.1306 11.8518 98.0249 11.4494 98.0953 11.0835C98.2363 10.2421 98.4477 9.14458 98.4477 9.14458L97.602 9.47383C97.602 9.47383 97.5316 9.72992 97.4611 10.1689C97.3554 9.83967 97.144 9.62018 96.8621 9.58359C96.3336 9.51042 95.7698 10.2421 95.5936 11.1201C95.4174 12.0347 95.6993 12.8396 96.2279 12.8762C96.6154 12.9128 97.003 12.5835 97.2497 12.0713C97.3906 12.4006 97.743 12.364 97.9544 12.2177C98.1658 12.0713 98.3772 11.7055 98.5182 11.4128C98.5886 11.8518 98.941 11.8518 99.1876 11.7055C99.5752 11.486 99.9276 10.9738 100.104 10.7543C100.245 11.0104 100.491 11.1567 100.773 11.1201C101.161 11.0835 101.619 10.5714 101.971 9.98601L101.83 10.6811L102.711 10.3153L103.028 8.6324C103.451 7.57145 103.592 7.9373 103.557 8.26655C103.557 8.26655 103.522 8.55923 103.451 9.03483C103.345 10.0226 103.768 10.0592 104.085 9.87626C104.543 9.58359 104.825 9.03482 105.072 8.52264C105.248 8.96165 105.46 9.3275 105.636 9.87626C106.904 13.5713 102.112 13.2054 100.209 13.2786C98.4477 13.3518 98.2715 14.9249 98.0953 16.1322C104.649 16.2054 107.609 11.1933 106.27 8.15679ZM97.3201 10.9738C97.2849 11.4128 97.003 11.8884 96.7564 11.8884C96.5097 11.8884 96.3336 11.5226 96.404 11.0104C96.4745 10.5714 96.6859 10.1689 96.9326 10.1689C97.1792 10.1689 97.3554 10.5348 97.3201 10.9738ZM100.773 9.80309C100.738 9.69334 100.738 9.58358 100.738 9.43725C100.773 8.99823 100.985 8.52264 101.267 8.44948C101.372 8.41289 101.478 8.44948 101.478 8.6324C101.478 9.03483 101.09 9.51042 100.773 9.80309ZM105.565 6.73001C105.53 6.69342 105.53 6.65684 105.53 6.62026C105.001 5.30322 105.706 5.1203 105.777 5.66906C105.777 5.96174 105.706 6.36416 105.565 6.73001ZM99.8571 2.96182C99.7514 3.80326 99.6809 5.55931 98.0953 5.8154C95.4879 6.25441 91.9996 7.42511 91.4358 10.0592C91.4358 10.0958 91.3301 10.0958 91.3301 10.0958C91.2597 5.96174 94.8184 2.96182 99.8571 2.96182Z" fill="#FF0000"/>
</g>
<defs>
<clipPath id="clip0_1_264">
<rect width="211.765" height="19.7556" fill="white"/>
</clipPath>
</defs>
</svg>
