<svg width="116" height="33" viewBox="0 0 116 33" fill="none" xmlns="http://www.w3.org/2000/svg">
<g clip-path="url(#clip0_1_414)">
<path d="M36.8085 28.9777V17.5011H35.3624V22.4394H30.407V17.5011H28.9609V28.9777H30.407V23.7826H35.3817V28.9777H36.8085ZM45.4081 23.1307C45.4081 21.3332 44.6368 20.4048 42.2845 20.4048C41.3975 20.4048 40.3563 20.5431 39.6043 20.7801L39.7393 21.9456C40.3949 21.8073 41.4168 21.669 42.1881 21.669C43.5185 21.669 43.962 22.0443 43.962 23.0912V24.3949H41.8024C40.1442 24.3949 39.2958 25.027 39.2958 26.7653C39.2958 28.2468 39.9514 29.1752 41.4747 29.1752C42.458 29.1752 43.4028 28.8986 44.1355 28.3851L44.2319 29.0172H45.4274L45.4081 23.1307ZM43.9813 27.2394C43.345 27.6542 42.5737 27.9307 41.8603 27.9307C40.8576 27.9307 40.7034 27.5752 40.7034 26.7258C40.7034 25.8764 41.0312 25.5999 41.8989 25.5999H43.9813V27.2394ZM54.2391 28.9777V22.5382C54.2391 21.2542 53.7763 20.4048 52.4652 20.4048C51.5204 20.4048 50.2092 20.8196 49.303 21.2937V16.9678L47.8954 17.1653V28.9974H49.303V22.6764C50.1899 22.2221 51.4432 21.8073 52.041 21.8073C52.5616 21.8073 52.8315 22.0246 52.8315 22.5777V28.9974H54.2391V28.9777ZM63.205 28.9777V22.5382C63.205 21.2542 62.7423 20.4048 61.4311 20.4048C60.467 20.4048 59.0402 20.8394 58.134 21.3135L57.999 20.6023H56.8421V28.9974H58.2496V22.6567C59.1366 22.2024 60.3899 21.8073 60.9876 21.8073C61.5082 21.8073 61.7782 22.0246 61.7782 22.5777V28.9974H63.205V28.9777ZM66.8107 26.0542V25.3628H71.6889V23.6048C71.6889 21.8665 71.0333 20.4246 68.6039 20.4246C66.1744 20.4246 65.4031 21.827 65.4031 23.5653V26.074C65.4031 27.9703 66.2322 29.1554 68.6424 29.1554C69.6643 29.1554 70.7634 28.9777 71.5347 28.6814L71.3611 27.5159C70.4549 27.753 69.5872 27.911 68.7774 27.911C67.177 27.911 66.8107 27.3777 66.8107 26.0542ZM66.8107 23.4468C66.8107 22.2616 67.2734 21.6295 68.6039 21.6295C69.9343 21.6295 70.3199 22.3011 70.3199 23.4468V24.1382H66.8107V23.4468ZM85.2246 28.9777V22.5382C85.2246 21.2542 84.7618 20.4048 83.4507 20.4048C82.4287 20.4048 81.0405 20.8196 80.0571 21.3135C79.8257 20.7406 79.3437 20.4048 78.4953 20.4048C77.5312 20.4048 76.1044 20.8394 75.1982 21.3135L75.0632 20.6023H73.9063V28.9974H75.3138V22.6567C76.2008 22.2024 77.4541 21.8073 78.0518 21.8073C78.5724 21.8073 78.8424 22.0246 78.8424 22.5777V28.9974H80.2499V22.6567C81.1369 22.2024 82.3131 21.8073 82.9879 21.8073C83.5085 21.8073 83.7785 22.0246 83.7785 22.5777V28.9974H85.2246V28.9777ZM87.7505 20.6023V27.0419C87.7505 28.3258 88.2132 29.1752 89.5244 29.1752C90.4885 29.1752 91.9153 28.7406 92.8215 28.2665L92.9565 28.9777H94.1134V20.5826H92.7058V26.9233C91.8189 27.3777 90.5656 27.7727 89.9679 27.7727C89.4473 27.7727 89.1773 27.5554 89.1773 27.0024V20.5826L87.7505 20.6023ZM88.8881 19.3184H90.1992V17.8764H88.8881V19.3184ZM91.7996 19.3184H93.1107V17.8764H91.7996V19.3184ZM103.156 28.9777V22.5382C103.156 21.2542 102.694 20.4048 101.383 20.4048C100.438 20.4048 99.1266 20.8196 98.2204 21.2937V16.9678L96.8128 17.1653V28.9974H98.2204V22.6764C99.1073 22.2221 100.361 21.8073 100.958 21.8073C101.479 21.8073 101.749 22.0246 101.749 22.5777V28.9974H103.156V28.9777ZM107.186 28.9777V16.948L105.779 17.1456V28.9777H107.186ZM110.85 26.0542V25.3628H115.728V23.6048C115.728 21.8665 115.072 20.4246 112.643 20.4246C110.214 20.4246 109.442 21.827 109.442 23.5653V26.074C109.442 27.9703 110.271 29.1554 112.682 29.1554C113.703 29.1554 114.803 28.9777 115.574 28.6814L115.4 27.5159C114.494 27.753 113.626 27.911 112.817 27.911C111.216 27.911 110.85 27.3777 110.85 26.0542ZM110.85 23.4468C110.85 22.2616 111.313 21.6295 112.643 21.6295C113.973 21.6295 114.359 22.3011 114.359 23.4468V24.1382H110.85V23.4468Z" fill="#6F7072"/>
<path d="M22.6751 13.0566C22.5402 11.5159 21.8846 10.1529 20.8048 9.26402C19.8408 8.45415 18.6067 8.05909 17.4113 8.21711C15.9459 8.37514 14.7504 9.52081 13.9984 10.4492C13.15 11.4764 12.5716 12.6023 12.2631 13.4122C11.5111 12.7406 11.0291 11.9504 10.7977 10.9825C10.6049 10.1529 10.3928 8.51341 10.2385 7.32822C10.1228 6.5381 10.065 5.906 10.0071 5.68872C9.85289 4.95785 9.37085 3.71341 9.06235 3.06155C9.7372 2.92328 10.2578 2.7455 10.7591 2.25168C11.2604 1.7381 12.0703 0.947975 12.0896 0.947975L12.5716 0.473899L11.8967 0.414642C11.7618 0.394889 8.32965 0.138099 7.7512 0.157852C7.34629 0.177605 6.84496 0.394888 6.44005 0.78995C6.11226 1.08625 5.68807 1.59983 5.37956 2.42946C5.07106 2.48872 2.27523 3.0418 2.27523 3.0418V3.65415L2.50661 3.71341C3.37428 3.91094 4.47333 4.38501 5.1289 4.87884L5.09034 4.89859C4.53117 5.2739 3.77919 5.78748 3.1429 6.38007C2.33307 7.13069 1.94744 7.8023 2.00529 8.39489C2.04385 8.8097 2.21738 9.12575 2.50661 9.34304C2.73799 9.50106 3.02721 9.58007 3.355 9.58007C2.96937 10.2714 2.75727 10.8048 2.60301 11.3183C2.4102 12.0295 2.33307 12.7406 2.42948 13.6295C2.54517 14.9924 3.22002 16.3554 3.99129 17.5406H0V27.0023C0 27.8517 0.173535 28.6616 0.539885 29.3727C0.867672 30.0443 1.33043 30.6171 1.90888 31.1109C2.95008 31.9801 4.33836 32.4937 5.63022 32.4937C6.92209 32.4937 8.31037 31.9801 9.35157 31.1109C9.93002 30.6369 10.3928 30.0443 10.7206 29.3727C11.0484 28.7208 11.2219 28.0097 11.2604 27.2591C11.3376 25.9949 11.7618 24.1183 12.4173 22.6566C13.15 20.9974 14.1334 20.1282 15.3867 20.0097C16.0616 19.9504 16.7364 20.0492 17.3149 20.3258C17.7969 20.543 18.2597 20.8788 18.626 21.2937C19.3009 22.0245 19.6287 22.8541 19.6672 23.0319V23.0122L19.8986 23.7825L20.2264 23.1109C20.747 22.0048 21.4797 20.2665 22.0196 18.2319C22.6173 16.2961 22.8101 14.5381 22.6751 13.0566ZM4.45405 18.1134L4.58902 18.2912C5.01321 18.864 5.45669 19.3579 5.82304 19.7529L6.65215 20.6616C7.98258 22.0838 9.02378 23.2097 9.50582 24.0393C10.1228 25.106 10.5663 26.1529 10.7206 26.943C10.7398 27.022 10.7591 27.1801 10.7591 27.2393C10.682 28.9381 9.81433 30.0048 9.06235 30.6369C8.11755 31.427 6.86425 31.9011 5.70735 31.9011C4.53117 31.9011 3.29715 31.4467 2.35235 30.6369C1.58109 29.985 0.655574 28.8196 0.655574 27.0023V18.1529L4.45405 18.1134ZM5.45669 5.37267L5.59166 5.2739C5.68807 5.41217 5.74591 5.53069 5.74591 5.66896C5.78448 6.14304 5.36028 6.65662 4.83968 7.32822C4.49261 7.76279 4.10698 8.27637 3.72135 8.86896C3.355 8.96773 3.04649 8.92822 2.83439 8.7702C2.69942 8.65168 2.60301 8.49365 2.58373 8.27637C2.54517 7.88131 2.87296 7.36773 3.52853 6.75538C4.16482 6.2418 4.91681 5.74797 5.45669 5.37267ZM21.5375 18.0937C21.1133 19.7134 20.5542 21.1751 20.0529 22.222C19.86 21.827 19.5708 21.3727 19.1659 20.9381C18.4718 20.148 17.2377 19.2591 15.3867 19.4171C14.5962 19.4961 13.8827 19.8319 13.2657 20.385C12.7644 20.8591 12.3209 21.5504 11.9353 22.3998C11.4918 23.427 11.1833 24.5924 10.9519 25.6788C10.7206 25.0665 10.4121 24.4146 10.0071 23.7233C9.48654 22.8344 8.42605 21.6887 7.07634 20.2467L6.24724 19.3381C5.36028 18.3702 4.6083 17.3825 4.06842 16.4344C3.47069 15.3875 3.12362 14.3998 3.04649 13.5504C2.96937 12.7406 3.02721 12.1085 3.20074 11.4566C3.355 10.864 3.64422 10.2517 4.16482 9.36279C4.53117 8.71094 4.93609 8.19736 5.32172 7.74304C5.93873 6.97267 6.40149 6.36032 6.34364 5.64921C6.2858 5.05662 5.80376 4.50353 4.85896 3.98995C4.45405 3.77267 3.99129 3.57514 3.56709 3.41711C4.47333 3.23933 5.64951 3.00229 5.64951 3.00229L5.82304 2.96279L5.88089 2.80476C6.30508 1.40229 7.24988 0.770197 7.77048 0.750444C8.13683 0.730691 9.89146 0.868963 11.164 0.947975C10.8941 1.20477 10.5663 1.54057 10.3157 1.79736C9.91074 2.21217 9.44798 2.33069 8.77312 2.48872L8.11755 2.64674L8.36821 3.02205C8.50318 3.21958 9.19732 4.87884 9.40942 5.80723C9.46726 6.00476 9.54439 6.65662 9.62151 7.38748C9.77577 8.65168 9.98786 10.2517 10.2 11.1208C10.4892 12.3653 11.1062 13.3332 12.1667 14.143L12.5138 14.3998L12.5716 14.1825C12.8608 13.2146 13.6514 11.7924 14.4226 10.8443C15.0975 9.99489 16.1965 8.96773 17.4498 8.8097C18.4718 8.67143 19.5515 9.02699 20.3999 9.7381C21.3447 10.5282 21.9424 11.7332 22.0581 13.1159C22.2124 14.5183 22.0196 16.1974 21.5375 18.0937ZM7.80904 3.49612C7.77048 3.02205 7.34629 2.64674 6.86425 2.706C6.40149 2.7455 6.03514 3.18007 6.09298 3.6739C6.13155 4.14798 6.55574 4.52328 7.03778 4.46403C7.50054 4.40477 7.84761 3.9702 7.80904 3.49612ZM7.21132 3.55538C7.2306 3.69365 7.11491 3.83193 6.97994 3.85168C6.84496 3.87143 6.70999 3.75291 6.69071 3.61464C6.67143 3.47637 6.78712 3.3381 6.92209 3.31835C7.07634 3.27884 7.19203 3.3776 7.21132 3.55538ZM4.95537 28.1085V28.2467C4.95537 28.4443 4.93609 28.543 4.56974 28.543C4.3962 28.543 4.16482 28.5233 3.97201 28.464L3.91416 28.8788C4.0877 28.9381 4.31908 28.9776 4.58902 28.9776C5.28316 28.9776 5.43741 28.7208 5.43741 28.2862V28.0492C5.43741 27.6937 5.30244 27.4566 4.83968 27.4369C4.70471 27.4369 4.62758 27.4171 4.49261 27.4171V26.7653H5.39885V26.3504H3.99129V27.8122C4.1841 27.8122 4.33836 27.8122 4.6083 27.8319C4.91681 27.8517 4.95537 27.9109 4.95537 28.1085ZM2.08241 28.9183H3.58638V28.5035H3.06577V26.3504H2.64158L2.00529 26.548L2.12098 26.9628L2.60301 26.8245V28.5035H2.10169V28.9183H2.08241ZM5.82304 28.1282V28.2862C5.82304 28.7406 6.03514 28.9579 6.65215 28.9579C7.26916 28.9579 7.48126 28.7801 7.48126 28.2862V28.1282C7.48126 27.9109 7.40413 27.7529 7.11491 27.6146C7.36557 27.4764 7.42341 27.3183 7.42341 27.1208V26.943C7.42341 26.548 7.2306 26.3109 6.67143 26.3109C6.11226 26.3109 5.91945 26.548 5.91945 26.943V27.1208C5.91945 27.3183 5.99657 27.4764 6.22795 27.6146C5.90017 27.7529 5.82304 27.9109 5.82304 28.1282ZM6.96065 27.1208C6.96065 27.2591 6.92209 27.3183 6.65215 27.4369C6.38221 27.3183 6.34364 27.2788 6.34364 27.1208V26.9628C6.34364 26.8048 6.40149 26.7257 6.65215 26.7257C6.90281 26.7257 6.96065 26.8245 6.96065 26.9628V27.1208ZM6.2858 28.1677C6.2858 28.0097 6.32436 27.9307 6.65215 27.7924C6.97994 27.9307 7.0185 27.99 7.0185 28.1677V28.2862C7.0185 28.4838 6.92209 28.543 6.65215 28.543C6.38221 28.543 6.2858 28.464 6.2858 28.2862V28.1677ZM8.63815 26.3504L7.73192 27.8912V28.3258H8.83097V28.8986H9.29373V28.3258H9.60223V27.9109H9.29373V26.3307H8.63815V26.3504ZM8.21396 27.9307L8.83097 26.8048V27.9307H8.21396Z" fill="#E1001A"/>
</g>
<defs>
<clipPath id="clip0_1_414">
<rect width="115.882" height="32.5926" fill="white"/>
</clipPath>
</defs>
</svg>
