<svg width="176" height="50" viewBox="0 0 176 50" fill="none" xmlns="http://www.w3.org/2000/svg">
<path fill-rule="evenodd" clip-rule="evenodd" d="M33.1649 6.58536C36.0614 8.37696 39.6096 13.2005 40.8406 16.7837C42.2889 20.7804 40.9131 24.7081 37.5097 27.6022C31.9339 32.288 28.3856 35.5266 25.7788 38.4896C23.7512 40.8325 21.2168 43.7955 21.434 49.8594C16.0754 43.7266 15.0617 34.2863 20.8547 28.1535C27.0822 21.5383 28.2408 20.1602 30.558 17.2661C32.7304 14.5098 33.5269 10.582 33.1649 6.58536Z" fill="#558EC0"/>
<path fill-rule="evenodd" clip-rule="evenodd" d="M8.94226 36.6889C-6.10693 23.9644 -1.99593 6.29154 20.0273 1.27245C22.3764 0.706915 23.4042 0.494841 24.5787 0C25.8267 2.4742 25.9735 4.38287 22.8903 6.43293C15.1822 11.452 3.50987 18.3091 8.94226 36.6889Z" fill="#558EC0"/>
<path fill-rule="evenodd" clip-rule="evenodd" d="M63.9229 39.8266C62.6908 40.313 62.0748 40.4519 60.2266 40.4519C52.9111 40.4519 47.0587 34.9625 47.0587 28.2223C47.0587 21.4821 52.9881 15.9927 60.2266 15.9927C61.4587 15.9927 62.6908 16.1316 63.9999 16.5486V22.5939C62.8448 21.9685 61.6897 21.6906 60.2266 21.6906C56.2224 21.6906 52.9881 24.609 52.9881 28.2223C52.9881 31.8356 56.2224 34.754 60.2266 34.754C61.9208 34.754 62.7678 34.4761 63.8459 33.9202L63.9229 39.8266Z" fill="#053D5B"/>
<path fill-rule="evenodd" clip-rule="evenodd" d="M146.823 28.2223C146.823 34.9625 141.102 40.4519 134.118 40.4519C127.059 40.4519 121.412 34.9625 121.412 28.2223C121.412 21.4821 127.133 15.9927 134.118 15.9927C141.102 15.9927 146.823 21.4821 146.823 28.2223ZM134.043 21.6906C130.18 21.6906 127.059 24.609 127.059 28.2223C127.059 31.8356 130.18 34.754 134.043 34.754C137.907 34.754 141.028 31.8356 141.028 28.2223C141.028 24.609 137.907 21.6906 134.043 21.6906Z" fill="#053D5B"/>
<path fill-rule="evenodd" clip-rule="evenodd" d="M93.0736 40.3815H86.5883V25.438C86.5883 20.4334 90.989 15.9927 96.4706 15.9927C101.952 15.9927 106.353 20.4334 106.353 25.438V40.4519H99.8677V25.438C99.8677 23.2529 98.3236 21.9137 96.3934 21.9137C94.4633 21.9137 92.9191 23.4644 92.9191 25.438L93.0736 40.3815Z" fill="#053D5B"/>
<path fill-rule="evenodd" clip-rule="evenodd" d="M154.883 40.3815H148.706V25.438C148.706 20.4334 152.897 15.9927 158.118 15.9927C163.338 15.9927 167.53 20.4334 167.53 25.438V40.4519H161.353V25.438C161.353 23.3234 159.883 21.9137 158.044 21.9137C156.206 21.9137 154.735 23.4644 154.735 25.438L154.883 40.3815Z" fill="#053D5B"/>
<path fill-rule="evenodd" clip-rule="evenodd" d="M72.0587 34.0376V40.3815H65.8822V25.438C65.8822 20.4334 70.0734 15.9927 75.294 15.9927C80.5146 15.9927 84.7057 20.4334 84.7057 25.438V40.4519H78.5293V33.9671H72.0587V34.0376ZM78.6028 28.469V25.5085C78.6028 23.3939 77.1322 21.9841 75.294 21.9841C73.6028 21.9841 71.9851 23.5349 71.9851 25.5085V28.5395H78.6028V28.469Z" fill="#053D5B"/>
<path fill-rule="evenodd" clip-rule="evenodd" d="M116.889 25.0001L118.829 28.4163C122.186 34.1101 118.755 42.0813 108.235 40.1597V34.5371C112.562 36.1029 114.95 33.8966 113.085 30.4091C113.085 30.4091 111.742 28.0605 110.697 26.2812C108.161 22.0108 111.369 14.7513 120.471 16.1747V21.9397C118.158 20.3027 115.099 21.9397 116.889 25.0001Z" fill="#053D5B"/>
<path d="M175.059 19.2854C175.059 19.9771 174.727 20.5305 174.228 20.9455C173.73 21.3605 172.983 21.6372 172.235 21.6372C171.405 21.6372 170.74 21.3605 170.242 20.9455C169.744 20.5305 169.412 19.9079 169.412 19.2854C169.412 18.5937 169.744 18.0403 170.242 17.6253C170.74 17.2102 171.488 16.9335 172.235 16.9335C172.983 16.9335 173.73 17.2102 174.228 17.6253C174.727 18.0403 175.059 18.5937 175.059 19.2854ZM173.979 20.8072C174.477 20.3921 174.727 19.9079 174.727 19.2854C174.727 18.732 174.477 18.1786 173.979 17.7636C173.481 17.3486 172.9 17.141 172.152 17.141C171.405 17.141 170.824 17.3486 170.325 17.7636C169.827 18.1786 169.578 18.6628 169.578 19.2854C169.578 19.9079 169.827 20.3921 170.325 20.8072C170.824 21.2222 171.405 21.4297 172.152 21.4297C172.9 21.4297 173.481 21.153 173.979 20.8072Z" fill="#053D5B"/>
<path fill-rule="evenodd" clip-rule="evenodd" d="M171.737 18.2451H172.346C172.567 18.2451 172.734 18.3194 172.734 18.6907C172.734 18.9878 172.623 19.1363 172.346 19.1363H171.737V18.2451ZM171.349 20.696H171.737V19.5077H172.291C172.623 19.5077 172.734 19.7305 172.734 20.2504C172.734 20.3989 172.734 20.5475 172.789 20.696H173.176C173.121 20.5475 173.066 20.2504 173.066 19.9533C173.066 19.5077 172.9 19.3592 172.734 19.3592C172.789 19.3592 173.066 19.2106 173.066 18.6165C173.066 18.0966 172.844 17.8738 172.346 17.8738H171.294V20.696H171.349Z" fill="#053D5B"/>
</svg>
