<svg width="123" height="16" viewBox="0 0 123 16" fill="none" xmlns="http://www.w3.org/2000/svg">
<g clip-path="url(#clip0_1_418)">
<path fill-rule="evenodd" clip-rule="evenodd" d="M74.172 15.3625H72.8439V0.0449104H74.172V15.3625ZM105.726 0.0449104V12.8845L93.8655 0.0449104V0H92.4934V15.3625H93.8655V2.38749L105.726 15.3625V15.3169V15.3625H107.097V0.0449104H105.726ZM89.4838 0.0449104V0.0898207L75.4107 15.3169H77.4458L89.4838 1.93707V10.8114H83.5538V12.2082H89.4838V15.3169H90.8105V0.0449104H89.4838Z" fill="black"/>
<path fill-rule="evenodd" clip-rule="evenodd" d="M67.1798 8.37833H67.2685C69.481 8.37833 71.2947 6.35144 71.2947 4.09935C71.2947 1.93707 69.6131 0.13473 67.5327 0.0449104V0H67.3119H56.4259V15.3625H57.7979V1.39683H67.4446C68.096 1.4833 68.6936 1.80556 69.1255 2.30319C69.5573 2.80083 69.7938 3.43968 69.7906 4.10001C69.7906 5.54174 68.684 6.93792 67.2238 7.0284H65.3654V8.55995H65.4088L69.3477 15.3176H71.5168L67.1798 8.37833ZM47.663 0L40.2729 0.0449104V15.3618H51.3804C53.5043 15.2264 55.1418 13.4241 55.1418 11.2611C55.1418 9.77516 54.3894 8.51372 53.2388 7.79252C54.3888 7.07264 55.1418 5.58599 55.1418 4.09935C55.1418 1.93707 53.5043 0.17964 51.4244 0.0449104V0H47.663ZM47.663 13.965H41.6444V1.39683H51.3357C51.987 1.48332 52.5846 1.8056 53.0163 2.30325C53.4481 2.8009 53.6844 3.43974 53.681 4.10001C53.681 5.58665 52.4864 6.98282 51.0256 7.0284V8.55863C52.4857 8.55863 53.681 9.77516 53.681 11.2611C53.681 12.658 52.6191 13.784 51.2917 13.965H47.663Z" fill="black"/>
<path fill-rule="evenodd" clip-rule="evenodd" d="M0 0V15.3169H1.37209L13.4094 2.29766V10.8114H7.56751V12.2082H13.4094V15.3169H14.7375V0H0ZM1.37209 13.2444V8.01904H6.24011L1.37209 13.2444ZM1.37209 6.62221V1.39617H12.4355L7.56751 6.62221H1.37209Z" fill="#00ACEC"/>
<path fill-rule="evenodd" clip-rule="evenodd" d="M115.418 0C111.258 0 107.85 3.42372 107.85 7.65911C107.85 11.8925 111.258 15.3625 115.418 15.3625C119.577 15.3625 122.941 11.8925 122.941 7.65911C122.941 3.42372 119.577 0 115.418 0ZM115.418 13.7398C112.143 13.7398 109.532 11.0373 109.532 7.74893C109.532 4.41504 112.143 1.75743 115.418 1.75743C118.648 1.75743 121.304 4.41504 121.304 7.74893C121.304 11.0373 118.648 13.7398 115.418 13.7398Z" fill="black"/>
<path fill-rule="evenodd" clip-rule="evenodd" d="M34.5636 1.48587V0.0890388H19.738V15.3617H21.0661V8.33264H29.8L23.3667 15.3161H25.4025L37.3958 1.93629V10.8106H31.5099V12.2074H37.3958L37.4838 15.4066H38.8559L38.7679 0.0441284H37.3958V0.0890388L31.0867 6.93647H21.0661V1.48587H34.5636Z" fill="black"/>
</g>
<defs>
<clipPath id="clip0_1_418">
<rect width="122.941" height="15.4074" fill="white"/>
</clipPath>
</defs>
</svg>
