<svg width="110" height="32" viewBox="0 0 110 32" fill="none" xmlns="http://www.w3.org/2000/svg">
<path fill-rule="evenodd" clip-rule="evenodd" d="M20.728 4.14816C22.5383 5.27673 24.7559 8.31518 25.5253 10.5723C26.4305 13.0899 25.5706 15.5641 23.4435 17.3871C19.9586 20.3388 17.7409 22.3789 16.1117 24.2454C14.8444 25.7212 13.2604 27.5877 13.3962 31.4074C10.0471 27.5442 9.41347 21.5976 13.0341 17.7344C16.9263 13.5674 17.6504 12.6992 19.0987 10.8762C20.4564 9.13991 20.9543 6.66574 20.728 4.14816Z" fill="#558EC0"/>
<path fill-rule="evenodd" clip-rule="evenodd" d="M5.58891 23.1111C-3.81683 15.0957 -1.24745 3.96318 12.517 0.801541C13.9853 0.4453 14.6276 0.311711 15.3617 0C16.1417 1.55855 16.2335 2.76087 14.3064 4.05224C9.48885 7.21387 2.19367 11.5333 5.58891 23.1111Z" fill="#558EC0"/>
<path fill-rule="evenodd" clip-rule="evenodd" d="M39.9519 25.0875C39.1818 25.3939 38.7968 25.4815 37.6417 25.4815C33.0695 25.4815 29.4118 22.0236 29.4118 17.7778C29.4118 13.532 33.1177 10.0741 37.6417 10.0741C38.4118 10.0741 39.1818 10.1616 40 10.4242V14.2323C39.2781 13.8384 38.5562 13.6633 37.6417 13.6633C35.139 13.6633 33.1177 15.5017 33.1177 17.7778C33.1177 20.0539 35.139 21.8922 37.6417 21.8922C38.7005 21.8922 39.23 21.7172 39.9038 21.367L39.9519 25.0875Z" fill="#053D5B"/>
<path fill-rule="evenodd" clip-rule="evenodd" d="M91.7647 17.7778C91.7647 22.0236 88.1888 25.4815 83.8235 25.4815C79.4118 25.4815 75.8824 22.0236 75.8824 17.7778C75.8824 13.532 79.4582 10.0741 83.8235 10.0741C88.1888 10.0741 91.7647 13.532 91.7647 17.7778ZM83.7771 13.6633C81.3622 13.6633 79.4118 15.5017 79.4118 17.7778C79.4118 20.0539 81.3622 21.8923 83.7771 21.8923C86.1919 21.8923 88.1424 20.0539 88.1424 17.7778C88.1424 15.5017 86.1919 13.6633 83.7771 13.6633Z" fill="#053D5B"/>
<path fill-rule="evenodd" clip-rule="evenodd" d="M58.171 25.4371H54.1176V16.0239C54.1176 12.8714 56.8681 10.0741 60.2941 10.0741C63.7201 10.0741 66.4706 12.8714 66.4706 16.0239V25.4815H62.4173V16.0239C62.4173 14.6474 61.4522 13.8038 60.2459 13.8038C59.0395 13.8038 58.0744 14.7807 58.0744 16.0239L58.171 25.4371Z" fill="#053D5B"/>
<path fill-rule="evenodd" clip-rule="evenodd" d="M96.8015 25.4371H92.9412V16.0239C92.9412 12.8714 95.5607 10.0741 98.8235 10.0741C102.086 10.0741 104.706 12.8714 104.706 16.0239V25.4815H100.846V16.0239C100.846 14.6919 99.9265 13.8038 98.7776 13.8038C97.6287 13.8038 96.7096 14.7807 96.7096 16.0239L96.8015 25.4371Z" fill="#053D5B"/>
<path fill-rule="evenodd" clip-rule="evenodd" d="M45.0368 21.4409V25.4371H41.1765V16.0239C41.1765 12.8714 43.796 10.0741 47.0588 10.0741C50.3217 10.0741 52.9412 12.8714 52.9412 16.0239V25.4815H49.0809V21.3965H45.0368V21.4409ZM49.1269 17.9332V16.0683C49.1269 14.7363 48.2077 13.8482 47.0588 13.8482C46.0019 13.8482 44.9908 14.8251 44.9908 16.0683V17.9776H49.1269V17.9332Z" fill="#053D5B"/>
<path fill-rule="evenodd" clip-rule="evenodd" d="M73.056 15.748L74.2683 17.9C76.3666 21.4866 74.2217 26.5079 67.6471 25.2974V21.7556C70.3515 22.7419 71.8436 21.3521 70.6779 19.1553C70.6779 19.1553 69.8386 17.6758 69.1858 16.555C67.6004 13.865 69.6055 9.29208 75.2941 10.1887V13.8202C73.8486 12.789 71.9369 13.8202 73.056 15.748Z" fill="#053D5B"/>
<path d="M109.412 12.1481C109.412 12.5839 109.204 12.9325 108.893 13.1939C108.581 13.4553 108.114 13.6296 107.647 13.6296C107.128 13.6296 106.713 13.4553 106.401 13.1939C106.09 12.9325 105.882 12.5403 105.882 12.1481C105.882 11.7124 106.09 11.3638 106.401 11.1024C106.713 10.8409 107.18 10.6667 107.647 10.6667C108.114 10.6667 108.581 10.8409 108.893 11.1024C109.204 11.3638 109.412 11.7124 109.412 12.1481ZM108.737 13.1067C109.048 12.8453 109.204 12.5403 109.204 12.1481C109.204 11.7996 109.048 11.451 108.737 11.1895C108.426 10.9281 108.062 10.7974 107.595 10.7974C107.128 10.7974 106.765 10.9281 106.453 11.1895C106.142 11.451 105.986 11.756 105.986 12.1481C105.986 12.5403 106.142 12.8453 106.453 13.1067C106.765 13.3682 107.128 13.4989 107.595 13.4989C108.062 13.4989 108.426 13.3246 108.737 13.1067Z" fill="#053D5B"/>
<path fill-rule="evenodd" clip-rule="evenodd" d="M107.336 11.4932H107.716C107.855 11.4932 107.958 11.5399 107.958 11.7739C107.958 11.961 107.889 12.0546 107.716 12.0546H107.336V11.4932ZM107.093 13.037H107.336V12.2885H107.682C107.889 12.2885 107.958 12.4288 107.958 12.7563C107.958 12.8499 107.958 12.9435 107.993 13.037H108.235C108.201 12.9435 108.166 12.7563 108.166 12.5692C108.166 12.2885 108.062 12.1949 107.958 12.1949C107.993 12.1949 108.166 12.1014 108.166 11.7271C108.166 11.3996 108.028 11.2592 107.716 11.2592H107.059V13.037H107.093Z" fill="#053D5B"/>
</svg>
