<svg width="133" height="13" viewBox="0 0 133 13" fill="none" xmlns="http://www.w3.org/2000/svg">
<g clip-path="url(#clip0_1_425)">
<path d="M7.97145 11.9373L6.49597 12.3291L3.28074 7.44349L1.47493 7.3974L1.56302 12.1217L0.109558 12.2369V0.299461L2.92839 0.207278C4.20567 0.161187 5.19667 0.460779 5.87935 1.05996C6.56204 1.68218 6.91439 2.51181 6.91439 3.50276C6.91439 4.17107 6.69417 4.81634 6.27575 5.4616C5.85733 6.12992 5.26273 6.63691 4.46994 6.95955V7.00563L7.97145 11.9373ZM1.541 1.15214L1.45291 6.59082L3.65512 6.49864C4.44792 6.26819 5.39487 5.30028 5.39487 3.87147C5.39487 2.28135 4.40387 1.24432 2.75221 1.19823L1.541 1.15214ZM14.8203 12.3291C11.6491 12.3291 9.16065 9.86324 9.16065 6.176C9.16065 2.78835 11.9795 0.0229187 15.1507 0.0229187C18.3439 0.0229187 20.8324 2.5118 20.8324 6.19905C20.8104 9.60975 17.8594 12.3291 14.8203 12.3291ZM15.0406 11.3381C17.5291 11.3381 19.2688 9.40234 19.2688 6.31427C19.2688 3.22621 17.2428 1.01386 14.9304 1.01386C12.464 1.01386 10.7022 2.92662 10.7022 6.06077C10.7022 9.0797 12.7723 11.3381 15.0406 11.3381ZM27.0646 12.1217L25.6112 12.2369V6.56777L21.3169 0.414688L22.8804 0.207278L26.4921 5.7151L30.2138 0.207278L31.4691 0.414688L27.0426 6.63691L27.0646 12.1217ZM41.335 12.0986L39.8154 12.26L38.6923 9.10275L33.2088 9.21798L32.0857 12.2369L30.8304 12.0986L35.7413 0.207278L36.402 0.0459619L41.335 12.0986ZM35.8955 2.25831L33.6272 8.1579L38.34 8.25007L35.8955 2.25831ZM46.378 12.1217L43.361 12.2139V0.322504L44.8145 0.207278L44.7484 5.25419L44.7924 11.1999L49.6373 11.0155L49.5272 12.1447L46.378 12.1217ZM79.8737 12.1217L78.4202 12.2369V1.19823L74.0158 1.35954L74.1259 0.207278H79.0148L84.146 0.0920517L84.0359 1.31345L79.8957 1.15214L79.8076 5.53074L79.8737 12.1217ZM93.9018 12.0986L92.3822 12.26L91.2591 9.10275L85.7756 9.21798L84.6525 12.2369L83.3972 12.0986L88.3081 0.207278L88.9688 0.0459619L93.9018 12.0986ZM88.4623 2.25831L86.194 8.1579L90.9068 8.25007L88.4623 2.25831ZM98.9448 12.1217L95.9278 12.2139V0.322504L97.3813 0.207278L97.3152 5.23115L97.3592 11.1768L102.204 10.9925L102.094 12.1217H98.9448ZM106.19 12.1217L104.274 12.2139V0.299461L107.005 0.207278H110.396L110.286 1.35954L105.728 1.17518L105.618 5.69206L109.582 5.57683L109.339 6.70605L105.596 6.59082L105.706 11.1768L110.771 11.0155L110.661 12.1447H106.19V12.1217ZM114.36 12.1217L113.061 12.2369L113.171 0.322504L114.228 0.207278L121.253 9.42538L121.121 0.322504L122.42 0.207278L122.266 12.1217L121.782 12.2139L114.206 2.58094L114.36 12.1217ZM128.146 12.2369C127.486 12.2369 126.825 12.0986 126.186 11.8221C125.548 11.5455 125.063 11.1999 124.711 10.8542L125.415 10.0476C126.296 10.739 127.243 11.269 128.521 11.269C129.93 11.269 130.899 10.6007 130.899 9.28711C130.899 8.59575 130.657 8.06572 130.216 7.74308C129.776 7.42045 129.159 7.09781 128.41 6.77518C126.847 6.12991 125.173 5.4616 125.173 3.2723C125.173 1.52086 126.693 0.115098 128.763 0.115098C129.842 0.115098 130.965 0.437733 131.626 0.944729L131.361 1.98177C130.701 1.65913 129.423 1.17518 128.454 1.17518C127.375 1.17518 126.472 1.70522 126.472 2.85748C126.472 3.59493 126.715 4.12497 127.155 4.44761C127.596 4.79328 128.212 5.11592 128.939 5.43856C130.48 6.12991 132.198 6.683 132.198 8.82621C132.22 11.0846 130.26 12.2369 128.146 12.2369Z" fill="#333333"/>
<path d="M56.0462 0.0452576V12.1901H67.6519V0.0452576H56.0462ZM61.8381 11.6831C58.8871 11.6831 56.5087 9.19423 56.5087 6.10616C56.5087 3.0181 58.8871 0.52921 61.8381 0.52921C64.789 0.52921 67.1674 3.0181 67.1674 6.10616C67.1674 9.19423 64.789 11.6831 61.8381 11.6831ZM57.1694 7.09711C57.2795 7.65019 57.808 8.98682 58.7109 8.66419C59.3716 8.41069 59.4156 7.76542 59.5477 7.02797C59.6579 6.33662 59.834 5.02304 60.0543 4.74649C60.0763 4.72345 60.0543 4.7004 60.0322 4.7004C59.5037 4.72345 59.1514 5.96789 58.9532 6.54402C58.5788 7.67324 57.4336 7.76543 57.2354 7.07407C57.2354 7.07407 57.1694 7.07406 57.1694 7.09711ZM66.4186 5.13826C66.2865 4.83867 66.1984 4.72344 66.0663 4.4469C66.1764 4.12427 66.3085 3.68641 66.2865 3.50205C66.1984 2.71851 65.1854 3.54814 65.4056 4.56213C65.4717 4.83867 65.5378 5.04608 65.5818 5.23045C65.2735 5.87571 65.1414 5.76048 65.1634 5.53003C65.1854 5.36872 65.2074 5.04608 65.2074 5.04608C65.2955 4.42386 64.9872 4.37777 64.789 4.51604C64.6789 4.58518 64.5247 4.81563 64.4587 4.9539L64.5247 4.65431L63.9742 4.88477L63.798 5.82962C63.5778 6.35966 63.3356 6.45184 63.1814 6.4288C63.1374 6.40575 63.0933 6.38271 63.0493 6.35966C63.5558 5.89876 63.732 5.50699 63.6879 5.23045C63.6439 4.93086 63.4236 4.93086 63.2695 4.97695C62.8731 5.11522 62.5428 5.53003 62.4547 6.10616C62.4326 6.29053 62.4326 6.47489 62.4767 6.61316C62.1243 7.18929 62.1023 6.86665 62.1464 6.6362C62.2565 6.10616 62.6088 3.91686 62.6088 3.91686L62.0583 4.14732C62.0583 4.14732 61.7279 6.06007 61.5958 6.79752C61.3315 7.46583 61.2655 7.21233 61.3095 6.98188C61.3976 6.45184 61.5297 5.76048 61.5297 5.76048L61.0012 5.96789C61.0012 5.96789 60.9572 6.12921 60.9131 6.40575C60.8471 6.19834 60.7149 6.06008 60.5387 6.03703C60.2084 5.99094 59.8561 6.45184 59.7459 7.00493C59.6358 7.58106 59.812 8.08806 60.1423 8.1111C60.3846 8.13415 60.6268 7.92674 60.781 7.60411C60.8691 7.81151 61.0893 7.78847 61.2214 7.69629C61.3536 7.6041 61.4857 7.37366 61.5738 7.18929C61.6178 7.46584 61.838 7.46583 61.9922 7.37365C62.2344 7.23538 62.4547 6.91275 62.5648 6.77448C62.6529 6.93579 62.807 7.02797 62.9832 7.00493C63.2254 6.98188 63.5117 6.65925 63.7319 6.29052L63.6439 6.72839L64.1944 6.49794L64.3926 5.43785C64.6569 4.76954 64.745 4.99999 64.7229 5.2074C64.7229 5.2074 64.7009 5.39176 64.6569 5.69135C64.5908 6.31357 64.8551 6.33662 65.0533 6.22139C65.3396 6.03703 65.5157 5.69135 65.6699 5.36871C65.78 5.64526 65.9121 5.87571 66.0223 6.22139C66.815 8.54896 63.82 8.31851 62.6308 8.3646C61.5297 8.41069 61.4196 9.40164 61.3095 10.1621C65.4056 10.2082 67.2555 7.05102 66.4186 5.13826ZM60.825 6.91275C60.803 7.18929 60.6268 7.48888 60.4727 7.48888C60.3185 7.48888 60.2084 7.25843 60.2525 6.93579C60.2965 6.65925 60.4286 6.40575 60.5828 6.40575C60.7369 6.40575 60.8471 6.63621 60.825 6.91275ZM62.9832 6.1753C62.9612 6.10616 62.9612 6.03703 62.9612 5.94484C62.9832 5.6683 63.1153 5.36872 63.2915 5.32263C63.3576 5.29958 63.4236 5.32263 63.4236 5.43785C63.4236 5.69135 63.1814 5.99093 62.9832 6.1753ZM65.9782 4.2395C65.9562 4.21645 65.9562 4.19341 65.9562 4.17036C65.6259 3.34073 66.0663 3.22551 66.1103 3.57118C66.1103 3.75555 66.0663 4.00904 65.9782 4.2395ZM62.4106 1.86584C62.3446 2.39588 62.3005 3.50205 61.3095 3.66336C59.6799 3.93991 57.4997 4.67736 57.1473 6.33662C57.1473 6.35966 57.0813 6.35966 57.0813 6.35966C57.0372 3.75555 59.2615 1.86584 62.4106 1.86584Z" fill="#FF0000"/>
</g>
<defs>
<clipPath id="clip0_1_425">
<rect width="132.353" height="12.4444" fill="white"/>
</clipPath>
</defs>
</svg>
