<svg width="186" height="52" viewBox="0 0 186 52" fill="none" xmlns="http://www.w3.org/2000/svg">
<g clip-path="url(#clip0_1_268)">
<path d="M58.8936 46.0022V27.7832H56.5798V35.6227H48.6512V27.7832H46.3374V46.0022H48.6512V37.755H56.6106V46.0022H58.8936ZM72.6529 36.7202C72.6529 33.8666 71.4189 32.3928 67.6551 32.3928C66.236 32.3928 64.5701 32.6123 63.3669 32.9886L63.5829 34.8387C64.6318 34.6192 66.2669 34.3997 67.5009 34.3997C69.6296 34.3997 70.3391 34.9955 70.3391 36.6575V38.7271H66.8839C64.2307 38.7271 62.8733 39.7306 62.8733 42.4901C62.8733 44.8419 63.9222 46.3157 66.3594 46.3157C67.9328 46.3157 69.4445 45.8767 70.6168 45.0614L70.771 46.0649H72.6838L72.6529 36.7202ZM70.37 43.2426C69.3519 43.9012 68.1179 44.3402 66.9764 44.3402C65.3722 44.3402 65.1254 43.7757 65.1254 42.4273C65.1254 41.0789 65.6498 40.6399 67.0381 40.6399H70.37V43.2426ZM86.7825 46.0022V35.7794C86.7825 33.7412 86.0421 32.3928 83.9442 32.3928C82.4325 32.3928 80.3347 33.0513 78.8847 33.8039V26.9365L76.6326 27.2501V46.0335H78.8847V35.9989C80.3038 35.2777 82.3091 34.6192 83.2655 34.6192C84.0985 34.6192 84.5304 34.9641 84.5304 35.8422V46.0335H86.7825V46.0022ZM101.128 46.0022V35.7794C101.128 33.7412 100.388 32.3928 98.2897 32.3928C96.7472 32.3928 94.4642 33.0827 93.0143 33.8352L92.7983 32.7064H90.9473V46.0335H93.1994V35.9676C94.6185 35.2464 96.6238 34.6192 97.5802 34.6192C98.4131 34.6192 98.845 34.9641 98.845 35.8422V46.0335H101.128V46.0022ZM106.897 41.3612V40.2636H114.702V37.4728C114.702 34.7133 113.653 32.4241 109.766 32.4241C105.879 32.4241 104.645 34.6506 104.645 37.4101V41.3925C104.645 44.4029 105.972 46.2844 109.828 46.2844C111.463 46.2844 113.221 46.0022 114.455 45.5318L114.178 43.6817C112.728 44.058 111.339 44.3088 110.044 44.3088C107.483 44.3088 106.897 43.4622 106.897 41.3612ZM106.897 37.2219C106.897 35.3404 107.637 34.337 109.766 34.337C111.895 34.337 112.512 35.4032 112.512 37.2219V38.3194H106.897V37.2219ZM136.359 46.0022V35.7794C136.359 33.7412 135.619 32.3928 133.521 32.3928C131.886 32.3928 129.665 33.0513 128.091 33.8352C127.721 32.9259 126.95 32.3928 125.592 32.3928C124.05 32.3928 121.767 33.0827 120.317 33.8352L120.101 32.7064H118.25V46.0335H120.502V35.9676C121.921 35.2464 123.927 34.6192 124.883 34.6192C125.716 34.6192 126.148 34.9641 126.148 35.8422V46.0335H128.4V35.9676C129.819 35.2464 131.701 34.6192 132.781 34.6192C133.614 34.6192 134.045 34.9641 134.045 35.8422V46.0335H136.359V46.0022ZM140.401 32.7064V42.9291C140.401 44.9673 141.141 46.3157 143.239 46.3157C144.781 46.3157 147.064 45.6259 148.514 44.8733L148.73 46.0022H150.581V32.675H148.329V42.7409C146.91 43.4622 144.905 44.0893 143.949 44.0893C143.116 44.0893 142.684 43.7444 142.684 42.8664V32.675L140.401 32.7064ZM142.221 30.6681H144.319V28.379H142.221V30.6681ZM146.879 30.6681H148.977V28.379H146.879V30.6681ZM165.05 46.0022V35.7794C165.05 33.7412 164.31 32.3928 162.212 32.3928C160.7 32.3928 158.603 33.0513 157.153 33.8039V26.9365L154.9 27.2501V46.0335H157.153V35.9989C158.572 35.2777 160.577 34.6192 161.533 34.6192C162.366 34.6192 162.798 34.9641 162.798 35.8422V46.0335H165.05V46.0022ZM171.498 46.0022V26.9051L169.246 27.2187V46.0022H171.498ZM177.36 41.3612V40.2636H185.165V37.4728C185.165 34.7133 184.116 32.4241 180.229 32.4241C176.342 32.4241 175.108 34.6506 175.108 37.4101V41.3925C175.108 44.4029 176.434 46.2844 180.29 46.2844C181.926 46.2844 183.684 46.0022 184.918 45.5318L184.64 43.6817C183.19 44.058 181.802 44.3088 180.506 44.3088C177.946 44.3088 177.36 43.4622 177.36 41.3612ZM177.36 37.2219C177.36 35.3404 178.1 34.337 180.229 34.337C182.357 34.337 182.974 35.4032 182.974 37.2219V38.3194H177.36V37.2219Z" fill="#6F7072"/>
<path d="M36.2802 20.7277C36.0643 18.2817 35.0154 16.118 33.2877 14.7069C31.7452 13.4212 29.7708 12.7941 27.858 13.0449C25.5134 13.2958 23.6007 15.1146 22.3975 16.5884C21.0401 18.219 20.1146 20.0064 19.6209 21.2921C18.4178 20.2259 17.6465 18.9716 17.2763 17.4351C16.9678 16.118 16.6284 13.5153 16.3816 11.6338C16.1965 10.3795 16.104 9.37605 16.0114 9.03111C15.7646 7.87086 14.9934 5.89531 14.4998 4.86049C15.5795 4.64099 16.4125 4.35876 17.2146 3.57481C18.0167 2.7595 19.3124 1.50519 19.3433 1.50519L20.1146 0.75259L19.0348 0.65852C18.8188 0.627162 13.3274 0.219506 12.4019 0.250865C11.7541 0.282223 10.9519 0.62716 10.3041 1.25432C9.77962 1.72469 9.10091 2.54 8.6073 3.85704C8.11369 3.95111 3.64036 4.82913 3.64036 4.82913V5.80123L4.01057 5.89531C5.39884 6.20889 7.15733 6.96148 8.20624 7.74543L8.14454 7.77679C7.24988 8.37259 6.04671 9.1879 5.02864 10.1286C3.73292 11.3202 3.11591 12.3864 3.20846 13.3272C3.27016 13.9857 3.54781 14.4874 4.01057 14.8323C4.38078 15.0832 4.84354 15.2086 5.36799 15.2086C4.75098 16.3062 4.41163 17.1528 4.16482 17.9681C3.85632 19.097 3.73292 20.2259 3.88717 21.637C4.07227 23.8007 5.15204 25.9644 6.38606 27.8459H0V42.8664C0 44.2148 0.277656 45.5005 0.863816 46.6294C1.38828 47.6956 2.12869 48.6049 3.0542 49.3889C4.72013 50.7686 6.94137 51.584 9.00836 51.584C11.0753 51.584 13.2966 50.7686 14.9625 49.3889C15.888 48.6363 16.6284 47.6956 17.1529 46.6294C17.6774 45.5946 17.955 44.4657 18.0167 43.2741C18.1401 41.2672 18.8188 38.2882 19.8678 35.9677C21.0401 33.3336 22.6134 31.9538 24.6187 31.7657C25.6985 31.6716 26.7783 31.8284 27.7038 32.2674C28.475 32.6123 29.2155 33.1454 29.8016 33.8039C30.8814 34.9642 31.4059 36.2812 31.4676 36.5635V36.5321L31.8378 37.7551L32.3622 36.6889C33.1952 34.9328 34.3675 32.1733 35.2313 28.9435C36.1877 25.8704 36.4962 23.0795 36.2802 20.7277ZM7.12647 28.7553L7.34243 29.0375C8.02114 29.9469 8.7307 30.7309 9.31686 31.358L10.6434 32.8005C12.7721 35.0583 14.4381 36.8457 15.2093 38.1627C16.1965 39.8561 16.9061 41.518 17.1529 42.7723C17.1838 42.8978 17.2146 43.1486 17.2146 43.2427C17.0912 45.9395 15.7029 47.6328 14.4998 48.6363C12.9881 49.8906 10.9828 50.6432 9.13176 50.6432C7.24988 50.6432 5.27544 49.922 3.76377 48.6363C2.52974 47.6015 1.04892 45.7514 1.04892 42.8664V28.818L7.12647 28.7553ZM8.7307 8.52938L8.94666 8.37259C9.10091 8.5921 9.19346 8.78024 9.19346 8.99975C9.25516 9.75234 8.57645 10.5677 7.74349 11.6338C7.18818 12.3237 6.57117 13.139 5.95416 14.0798C5.368 14.2365 4.87438 14.1738 4.53503 13.923C4.31908 13.7348 4.16482 13.4839 4.13397 13.139C4.07227 12.5118 4.59673 11.6965 5.64565 10.7244C6.66372 9.90913 7.86689 9.12518 8.7307 8.52938ZM34.4601 28.724C33.7813 31.2953 32.8867 33.6158 32.0846 35.2778C31.7761 34.6506 31.3133 33.9294 30.6654 33.2395C29.5548 31.9852 27.5804 30.5741 24.6187 30.8249C23.3539 30.9504 22.2124 31.4835 21.2252 32.3615C20.4231 33.1141 19.7135 34.2116 19.0965 35.56C18.3869 37.1906 17.8933 39.0407 17.5231 40.7654C17.1529 39.7933 16.6593 38.7585 16.0114 37.661C15.1785 36.2499 13.4817 34.4311 11.3221 32.142L9.99558 30.6995C8.57645 29.163 7.37328 27.5951 6.50946 26.0899C5.5531 24.4279 4.99779 22.86 4.87439 21.5116C4.75098 20.2259 4.84353 19.2225 5.12119 18.1877C5.36799 17.2469 5.83075 16.2748 6.66372 14.8637C7.24988 13.8289 7.89774 13.0136 8.51475 12.2923C9.50197 11.0694 10.2424 10.0973 10.1498 8.9684C10.0573 8.02766 9.28601 7.14963 7.77434 6.33432C7.12647 5.98938 6.38606 5.6758 5.70735 5.42494C7.15733 5.14272 9.03921 4.76642 9.03921 4.76642L9.31686 4.7037L9.40942 4.45284C10.0881 2.22642 11.5998 1.22296 12.4328 1.19161C13.0189 1.16025 15.8263 1.37975 17.8625 1.50519C17.4306 1.91284 16.9061 2.44593 16.505 2.85358C15.8572 3.5121 15.1168 3.70025 14.037 3.95111L12.9881 4.20197L13.3891 4.79778C13.6051 5.11136 14.7157 7.74543 15.0551 9.21926C15.1476 9.53284 15.271 10.5677 15.3944 11.7279C15.6412 13.7348 15.9806 16.2748 16.3199 17.6546C16.7827 19.6301 17.7699 21.1667 19.4667 22.4523L20.022 22.86L20.1146 22.5151C20.5773 20.9785 21.8422 18.7207 23.0762 17.2156C24.156 15.8672 25.9145 14.2365 27.9197 13.9857C29.5548 13.7662 31.2824 14.3306 32.6399 15.4595C34.1516 16.7138 35.1079 18.6267 35.293 20.8217C35.5398 23.0481 35.2313 25.7136 34.4601 28.724ZM12.4945 5.55037C12.4328 4.79778 11.7541 4.20197 10.9828 4.29605C10.2424 4.35876 9.65622 5.04864 9.74877 5.83259C9.81047 6.58519 10.4892 7.18099 11.2604 7.08691C12.0009 6.99284 12.5562 6.30296 12.4945 5.55037ZM11.5381 5.64444C11.569 5.86395 11.3838 6.08346 11.1679 6.11481C10.9519 6.14617 10.736 5.95802 10.7051 5.73852C10.6743 5.51901 10.8594 5.29951 11.0753 5.26815C11.3221 5.20543 11.5073 5.36222 11.5381 5.64444ZM7.92859 44.6225V44.842C7.92859 45.1556 7.89774 45.3123 7.31158 45.3123C7.03392 45.3123 6.66372 45.281 6.35521 45.1869L6.26266 45.8454C6.54032 45.9395 6.91052 46.0022 7.34243 46.0022C8.45305 46.0022 8.69985 45.5946 8.69985 44.9047V44.5284C8.69985 43.9639 8.4839 43.5877 7.74349 43.5563C7.52753 43.5563 7.40413 43.5249 7.18818 43.5249V42.4901H8.63815V41.8316H6.38606V44.1521C6.69457 44.1521 6.94137 44.1521 7.37328 44.1835C7.86689 44.2148 7.92859 44.3089 7.92859 44.6225ZM3.33186 45.9081H5.7382V45.2496H4.90524V41.8316H4.22652L3.20846 42.1452L3.39356 42.8037L4.16482 42.5842V45.2496H3.36271V45.9081H3.33186ZM9.31686 44.6538V44.9047C9.31686 45.6259 9.65622 45.9709 10.6434 45.9709C11.6307 45.9709 11.97 45.6886 11.97 44.9047V44.6538C11.97 44.3089 11.8466 44.058 11.3839 43.8385C11.7849 43.619 11.8775 43.3681 11.8775 43.0546V42.7723C11.8775 42.1452 11.569 41.7689 10.6743 41.7689C9.77962 41.7689 9.47112 42.1452 9.47112 42.7723V43.0546C9.47112 43.3681 9.59452 43.619 9.96473 43.8385C9.44027 44.058 9.31686 44.3089 9.31686 44.6538ZM11.137 43.0546C11.137 43.2741 11.0753 43.3681 10.6434 43.5563C10.2115 43.3681 10.1498 43.3054 10.1498 43.0546V42.8037C10.1498 42.5528 10.2424 42.4274 10.6434 42.4274C11.0445 42.4274 11.137 42.5842 11.137 42.8037V43.0546ZM10.0573 44.7165C10.0573 44.4657 10.119 44.3402 10.6434 44.1207C11.1679 44.3402 11.2296 44.4343 11.2296 44.7165V44.9047C11.2296 45.2183 11.0753 45.3123 10.6434 45.3123C10.2115 45.3123 10.0573 45.1869 10.0573 44.9047V44.7165ZM13.821 41.8316L12.3711 44.2775V44.9674H14.1295V45.8768H14.87V44.9674H15.3636V44.3089H14.87V41.8002H13.821V41.8316ZM13.1423 44.3402L14.1295 42.5528V44.3402H13.1423Z" fill="#E1001A"/>
</g>
<defs>
<clipPath id="clip0_1_268">
<rect width="185.412" height="51.7407" fill="white"/>
</clipPath>
</defs>
</svg>
